<svg xmlns="http://www.w3.org/2000/svg" width="1190.59" height="359.86" viewBox="0 0 1190.59 359.86">
  <g id="Group_3" data-name="Group 3" transform="translate(-331.35 -321.86)">
    <path id="Path_1" data-name="Path 1" d="M197.262,860.426q-59.508,0-118.716-1.707a6.624,6.624,0,1,1,.384-13.242c92.362,2.674,185.942,2.2,278.338-1.4a207.624,207.624,0,0,0-42.028-51.608,6.623,6.623,0,1,1,8.806-9.9,220.946,220.946,0,0,1,50.019,64.678,6.624,6.624,0,0,1-5.621,9.633C311.681,859.244,254.43,860.426,197.262,860.426Z" transform="translate(265.541 -227.306)" fill="#63efff"/>
    <path id="Path_2" data-name="Path 2" d="M597.551,461.453a6.623,6.623,0,0,1-3.344-12.343l57.742-33.7c4.631-2.7,9.42-5.5,12.126-9.424,3.482-5.049,3.782-12.106,3.8-20.135.06-23.085-.5-46.515-1.66-69.641a6.623,6.623,0,0,1,13.23-.664c1.173,23.357,1.738,47.024,1.678,70.34-.026,9.9-.515,19.454-6.145,27.622-4.381,6.356-11.02,10.231-16.354,13.344l-57.744,33.7A6.587,6.587,0,0,1,597.551,461.453Z" transform="translate(-105.326 109.847)" fill="#63efff"/>
    <g id="Group_2" data-name="Group 2" transform="translate(331.35 553.93)">
      <g id="Group_1" data-name="Group 1" transform="translate(0.013 0)">
        <path id="Path_3" data-name="Path 3" d="M351.37,849.2h-289c-6.08,0-10.263-1.859-11.779-5.235-.548-1.222-1.462-4.472,1.893-8.241l43.408-48.771c2.848-3.2,9.907-4.873,15.409-4.873h39.45a3.312,3.312,0,1,1,0,6.624H111.3c-4.871,0-9.523,1.6-10.463,2.652l-43.408,48.77a2.678,2.678,0,0,0-.77,1.249c.14.146,1.619,1.2,5.709,1.2h289c3.982,0,5.489-1,5.724-1.313a5.61,5.61,0,0,0-.787-1.136L312.9,791.36c-.94-1.054-5.593-2.652-10.463-2.652h-41.3a3.312,3.312,0,1,1,0-6.624h41.3c5.5,0,12.561,1.673,15.409,4.873l43.408,48.771c3.355,3.769,2.441,7.018,1.893,8.241C361.633,847.345,357.45,849.2,351.37,849.2Z" transform="translate(-50.046 -782.085)" fill="#100b80"/>
        <path id="Path_4" data-name="Path 4" d="M225.165,849.322a3.312,3.312,0,0,1-2.853-4.991L257,785.4a3.312,3.312,0,0,1,5.709,3.359L228.021,847.69A3.308,3.308,0,0,1,225.165,849.322Z" transform="translate(-172.863 -783.29)" fill="#100b80"/>
        <path id="Path_5" data-name="Path 5" d="M922.081,849.32a3.308,3.308,0,0,1-2.721-1.421l-40.991-58.928a3.312,3.312,0,0,1,5.438-3.782L924.8,844.117a3.312,3.312,0,0,1-2.717,5.2Z" transform="translate(-641.746 -783.288)" fill="#100b80"/>
        <path id="Path_6" data-name="Path 6" d="M190.2,859.3a3.312,3.312,0,0,1-2.658-5.285l16.7-22.52a3.312,3.312,0,0,1,5.321,3.946l-16.7,22.52A3.31,3.31,0,0,1,190.2,859.3Z" transform="translate(-147.866 -816.45)" fill="#100b80"/>
      </g>
      <path id="Path_7" data-name="Path 7" d="M351.208,1008.09H62.46A12.473,12.473,0,0,1,50,995.63V985.275a3.312,3.312,0,1,1,6.624,0V995.63a5.842,5.842,0,0,0,5.837,5.836H351.208a5.842,5.842,0,0,0,5.837-5.836V985.275a3.312,3.312,0,1,1,6.624,0V995.63A12.473,12.473,0,0,1,351.208,1008.09Z" transform="translate(-50 -924.967)" fill="#100b80"/>
    </g>
    <path id="Path_8" data-name="Path 8" d="M369.408,337.817a3.317,3.317,0,0,1-1.656-.444l-88.673-51.2a3.31,3.31,0,0,1-1.656-2.868V180.918a3.31,3.31,0,0,1,1.656-2.867l88.673-51.2a3.315,3.315,0,0,1,3.312,0l88.673,51.2a3.31,3.31,0,0,1,1.656,2.867V283.31a3.31,3.31,0,0,1-1.656,2.867l-88.673,51.2A3.317,3.317,0,0,1,369.408,337.817ZM284.047,281.4l85.361,49.284L454.769,281.4V182.83l-85.361-49.284L284.047,182.83Z" transform="translate(118.777 240.551)" fill="#100b80"/>
    <path id="Path_9" data-name="Path 9" d="M280.737,414.96a3.312,3.312,0,0,1-1.658-6.179L456.424,306.389a3.311,3.311,0,0,1,3.312,5.735L282.39,414.516A3.289,3.289,0,0,1,280.737,414.96Z" transform="translate(118.777 112.213)" fill="#100b80"/>
    <path id="Path_10" data-name="Path 10" d="M458.078,414.96a3.289,3.289,0,0,1-1.654-.444L279.079,312.124a3.311,3.311,0,1,1,3.312-5.735L459.736,408.781a3.312,3.312,0,0,1-1.658,6.179Z" transform="translate(118.777 112.213)" fill="#100b80"/>
    <path id="Path_11" data-name="Path 11" d="M176.7-17.1l-3.8-12.16c-4.18,1.52-8.36,3.04-12.92,3.04-6.08,0-12.16-4.94-12.16-22.42v-62.7c0-21.28-3.42-37.62-19.76-50.16-10.26-7.6-21.66-11.02-37.24-11.02-21.66,3.8-48.64,17.1-63.08,26.98-8.74,6.46-13.3,11.4-13.3,18.24,0,9.88,13.68,19,23.56,19,7.98,0,13.3-3.04,15.96-12.92C57-133,60.42-142.12,64.98-147.44q5.13-6.84,12.54-6.84c14.06,0,23.18,13.3,23.18,37.24v11.4c-8.74,7.6-38,16.72-60.42,25.08C20.52-73.34,11.4-63.84,11.4-44.08c0,23.56,19,48.64,51.3,48.64,7.22,0,25.08-12.54,39.52-22.04A35.45,35.45,0,0,0,112.1-3.42c4.94,4.56,12.92,7.98,23.18,7.98Zm-76-12.92c-6.46,4.56-10.64,6.08-15.96,6.08-8.74,0-22.8-7.98-22.8-29.26,0-12.92,6.08-19.76,17.86-25.84,7.6-4.18,14.06-8.36,20.9-11.78Zm169.48-102.6V-172.9c-23.56,7.22-45.98,11.4-68.78,14.44v10.64c17.48,4.18,20.52,5.7,20.52,25.08V-39.9c0,23.56-3.8,25.46-24.32,27.74V0H301.72V-12.16c-29.26-2.66-31.54-4.18-31.54-27.74v-70.68c6.46-14.82,14.06-19.76,21.28-19.76,6.46,0,11.02,2.66,17.48,7.98,2.66,2.28,6.46,3.42,11.78,1.52,10.26-3.8,18.62-14.44,18.62-28.12,0-12.92-10.26-23.56-25.46-23.56-14.06,0-28.88,16.34-42.56,39.9Zm137.56-63.84c15.58,0,27.36-12.16,27.36-26.6,0-15.2-11.78-26.6-26.98-26.6-14.44,0-26.98,11.4-26.98,26.6C381.14-208.62,393.68-196.46,407.74-196.46ZM459.8,0V-12.16C437-15.2,435.1-17.1,435.1-43.32v-129.2a454.559,454.559,0,0,1-69.16,13.68v11.02c18.24,3.04,20.9,4.18,20.9,29.26v75.24c0,26.98-2.28,28.5-24.32,31.16V0Zm34.96-167.96-11.02,13.68,1.9,4.56h24.7V-41.04c0,23.94-1.52,25.84-23.56,28.88V0H590.14V-12.16c-28.88-3.04-31.54-5.32-31.54-28.88V-149.72h38.38c5.32-2.66,6.84-14.06,5.32-18.24H558.6l-.38-13.3c-1.52-32.3-1.52-45.6.76-52.44,1.52-6.08,4.94-10.26,11.78-10.26,10.26,0,22.42,9.5,31.92,19,3.42,3.42,7.6,3.42,12.54-.38A34.466,34.466,0,0,0,627-239.02c2.28-5.32,1.9-11.4-3.42-16.72-6.46-6.08-15.96-10.64-31.16-11.4-18.24,2.28-31.16,9.12-44.84,20.9-22.04,17.86-30.02,36.48-32.68,44.46-2.66,9.12-4.56,17.1-4.56,25.46v8.36Zm308.18,0h-68.4v12.16c18.62,3.42,22.42,8.36,18.24,20.9-6.84,21.66-19.76,59.66-28.5,80.94l-28.5-84.36c-4.18-12.16-1.14-14.44,15.2-17.48v-12.16H616.74v12.16c17.86,2.66,22.42,7.22,29.26,23.56,7.22,16.72,28.12,70.68,47.88,125.78,2.28,6.08,3.42,11.78,1.52,17.86a126.579,126.579,0,0,1-7.22,15.58c-7.22,11.78-15.96,19-31.16,26.98-7.6,4.94-10.26,8.74-10.26,14.82,0,13.68,16.34,23.94,26.6,23.94,6.46,0,11.4-1.9,14.06-10.26,6.84-21.28,14.44-44.84,39.9-106.4,22.04-52.82,34.58-84.36,44.08-104.5,9.5-20.52,13.3-24.32,31.54-27.36Z" transform="translate(719 589)" fill="#100b80"/>
  </g>
</svg>
