<svg xmlns="http://www.w3.org/2000/svg" width="1149.197" height="312.51" viewBox="0 0 1149.197 312.51">
  <g id="Group_1" data-name="Group 1" transform="translate(-383.243 -450.01)">
    <path id="Path_1" data-name="Path 1" d="M226.71,0V-11.55c-20.79-2.64-25.08-6.93-36.3-35.97-21.45-56.76-41.91-114.18-63.03-171.93l-16.83,4.29L42.9-45.54C32.01-17.82,28.05-14.19,6.27-11.55L5.94,0H79.86V-11.55c-24.09-2.97-24.75-7.59-20.13-23.43,3.96-13.2,8.25-25.08,11.88-35.31h63.36c4.95,13.53,9.9,27.39,13.2,37.29,5.28,14.52,3.63,18.48-15.84,21.45V0ZM128.7-87.78H77.22c8.58-23.43,16.83-47.19,26.07-71.28h.99Z" transform="translate(699 682)" fill="#1957cb"/>
    <path id="Path_2" data-name="Path 2" d="M217.8-7.59c-7.59-2.64-12.87-6.6-20.13-14.19-6.6-6.93-13.53-17.49-25.41-35.64-9.57-15.18-22.11-37.29-26.73-46.86,22.11-9.24,41.25-24.75,41.25-53.79,0-20.46-9.24-35.31-22.44-43.89-13.2-9.24-30.03-12.54-58.74-12.54H12.87v11.55c24.09,2.31,27.06,5.61,27.06,32.01V-44.22c0,27.06-3.63,30.36-28.38,32.67V0h99.66V-11.55c-24.75-2.31-28.05-5.61-28.05-32.67V-92.4h6.27c10.56.33,16.5,4.29,21.78,14.52,9.57,17.16,18.48,34.98,27.06,48.51C151.47-8.58,164.34.66,205.92,2.64c3.96,0,7.92.33,9.9.33ZM83.16-105.27v-80.52c0-6.93.66-10.23,2.97-12.21,1.98-1.98,6.6-3.3,14.85-3.3,18.48,0,38.94,12.87,38.94,47.85,0,16.83-4.62,30.03-15.84,39.27-7.26,6.6-18.48,8.91-32.34,8.91Z" transform="translate(920 682)" fill="#1957cb"/>
    <path id="Path_3" data-name="Path 3" d="M48.84-170.61c13.53,0,23.76-10.56,23.76-23.1,0-13.2-10.23-23.1-23.43-23.1a23.236,23.236,0,0,0-23.43,23.1C25.74-181.17,36.63-170.61,48.84-170.61ZM94.05,0V-10.56C74.25-13.2,72.6-14.85,72.6-37.62v-112.2a394.75,394.75,0,0,1-60.06,11.88v9.57c15.84,2.64,18.15,3.63,18.15,25.41v65.34c0,23.43-1.98,24.75-21.12,27.06V0Zm27.06-145.86-9.57,11.88,1.65,3.96h21.45v94.38c0,20.79-1.32,22.44-20.46,25.08V0h89.76V-10.56c-25.08-2.64-27.39-4.62-27.39-25.08v-94.38h33.33c4.62-2.31,5.94-12.21,4.62-15.84H176.55l-.33-11.55c-1.32-28.05-1.32-39.6.66-45.54,1.32-5.28,4.29-8.91,10.23-8.91,8.91,0,19.47,8.25,27.72,16.5,2.97,2.97,6.6,2.97,10.89-.33a29.931,29.931,0,0,0,10.23-11.88c1.98-4.62,1.65-9.9-2.97-14.52-5.61-5.28-13.86-9.24-27.06-9.9-15.84,1.98-27.06,7.92-38.94,18.15-19.14,15.51-26.07,31.68-28.38,38.61-2.31,7.92-3.96,14.85-3.96,22.11v7.26Zm264.33,0h-59.4v10.56c16.17,2.97,19.47,7.26,15.84,18.15-5.94,18.81-17.16,51.81-24.75,70.29l-24.75-73.26c-3.63-10.56-.99-12.54,13.2-15.18v-10.56H223.74v10.56c15.51,2.31,19.47,6.27,25.41,20.46,6.27,14.52,24.42,61.38,41.58,109.23,1.98,5.28,2.97,10.23,1.32,15.51a109.916,109.916,0,0,1-6.27,13.53c-6.27,10.23-13.86,16.5-27.06,23.43-6.6,4.29-8.91,7.59-8.91,12.87,0,11.88,14.19,20.79,23.1,20.79,5.61,0,9.9-1.65,12.21-8.91,5.94-18.48,12.54-38.94,34.65-92.4,19.14-45.87,30.03-73.26,38.28-90.75,8.25-17.82,11.55-21.12,27.39-23.76Z" transform="translate(1147 682)" fill="#121212"/>
    <path id="Path_1-2" data-name="Path 1" d="M175.823,847.651q-49.314,0-98.379-1.415a5.489,5.489,0,1,1,.318-10.974c76.539,2.216,154.088,1.823,230.656-1.16a172.054,172.054,0,0,0-34.828-42.767c-2.266-2.015-2.015.1,0-2.17s3.5-4.551,5.76-2.537c17.084,15.2,32.568,29.74,42.987,50.105a5.489,5.489,0,0,1-4.658,7.983C270.641,846.671,223.2,847.651,175.823,847.651Z" transform="translate(318.919 -170.732)" fill="#63efff" stroke="#63efff" stroke-width="10"/>
    <path id="Path_2-2" data-name="Path 2" d="M596.415,435.38a5.488,5.488,0,0,1-2.771-10.228l47.85-27.927c3.838-2.237,7.806-4.558,10.049-7.81,2.885-4.184,3.134-10.032,3.149-16.686.05-19.13-.414-38.546-1.376-57.711a5.489,5.489,0,1,1,10.964-.55c.972,19.356,1.44,38.968,1.391,58.29-.022,8.2-.427,16.121-5.092,22.89-3.63,5.267-9.132,8.478-13.552,11.058l-47.852,27.927A5.459,5.459,0,0,1,596.415,435.38Z" transform="translate(-77.292 190.31)" fill="#63efff"/>
    <g id="Group_2" data-name="Group 2" transform="translate(385.808 611.291)">
      <g id="Group_1-2" data-name="Group 1" transform="translate(0.014 0)">
        <path id="Path_3-2" data-name="Path 3" d="M299.751,837.7H60.259c-5.038,0-8.5-1.541-9.761-4.338-.454-1.013-1.212-3.706,1.569-6.829l35.972-40.416c2.36-2.652,8.21-4.038,12.769-4.038H133.5a2.745,2.745,0,0,1,0,5.489H100.807c-4.037,0-7.892,1.326-8.671,2.2L56.165,830.182a2.22,2.22,0,0,0-.638,1.035c.116.121,1.342.995,4.731.995H299.749c3.3,0,4.549-.829,4.743-1.088a4.649,4.649,0,0,0-.652-.941L267.871,789.77c-.779-.873-4.635-2.2-8.671-2.2H224.975a2.745,2.745,0,1,1,0-5.489H259.2c4.558,0,10.409,1.386,12.769,4.038l35.972,40.416c2.78,3.123,2.023,5.816,1.569,6.829C308.255,836.164,304.789,837.7,299.751,837.7Z" transform="translate(-50.05 -782.08)" fill="#1957cb" stroke="#1957cb" stroke-linecap="round" stroke-width="5"/>
        <path id="Path_4" data-name="Path 4" d="M224.6,838.092a2.745,2.745,0,0,1-2.364-4.136l28.746-48.835a2.745,2.745,0,0,1,4.731,2.784l-28.746,48.835a2.741,2.741,0,0,1-2.367,1.352Z" transform="translate(-181.259 -783.368)" fill="#1957cb" stroke="#1957cb" stroke-linecap="round" stroke-width="5"/>
        <path id="Path_5" data-name="Path 5" d="M914.491,838.09a2.741,2.741,0,0,1-2.255-1.178L878.267,788.08a2.745,2.745,0,1,1,4.506-3.134l33.97,48.833a2.745,2.745,0,0,1-2.251,4.309Z" transform="translate(-682.183 -783.366)" fill="#1957cb" stroke="#1957cb" stroke-linecap="round" stroke-width="5"/>
        <path id="Path_6" data-name="Path 6" d="M189.633,854.307a2.745,2.745,0,0,1-2.2-4.38l13.839-18.662a2.745,2.745,0,1,1,4.409,3.27L191.84,853.2a2.743,2.743,0,0,1-2.207,1.11Z" transform="translate(-154.554 -818.794)" fill="#1957cb" stroke="#1957cb" stroke-linecap="round" stroke-width="5"/>
      </g>
      <path id="Path_7" data-name="Path 7" d="M299.608,1003.614H60.325A10.336,10.336,0,0,1,50,993.289v-8.581a2.745,2.745,0,1,1,5.489,0v8.581a4.841,4.841,0,0,0,4.837,4.836H299.608a4.841,4.841,0,0,0,4.837-4.836v-8.581a2.745,2.745,0,1,1,5.489,0v8.581a10.336,10.336,0,0,1-10.326,10.326Z" transform="translate(-50 -934.727)" fill="#1957cb" stroke="#1957cb" stroke-linecap="round" stroke-width="5"/>
    </g>
    <path id="Path_8" data-name="Path 8" d="M353.65,301.6a2.749,2.749,0,0,1-1.372-.368L278.8,258.8a2.743,2.743,0,0,1-1.372-2.377V171.58A2.743,2.743,0,0,1,278.8,169.2l73.482-42.429a2.747,2.747,0,0,1,2.745,0L428.5,169.2a2.743,2.743,0,0,1,1.372,2.376v84.851a2.743,2.743,0,0,1-1.372,2.376l-73.482,42.429A2.749,2.749,0,0,1,353.65,301.6Zm-70.738-46.752,70.738,40.841,70.738-40.841V173.164L353.65,132.323l-70.738,40.841Z" transform="translate(162.126 329.946)" fill="#1957cb" stroke="#1957cb" stroke-linecap="round" stroke-width="5"/>
    <path id="Path_9" data-name="Path 9" d="M280.17,396.285a2.745,2.745,0,0,1-1.374-5.12L425.76,306.313a2.744,2.744,0,1,1,2.745,4.753L281.539,395.917A2.726,2.726,0,0,1,280.17,396.285Z" transform="translate(162.125 192.837)" fill="#1957cb" stroke="#1957cb" stroke-linecap="round" stroke-width="5"/>
    <path id="Path_10" data-name="Path 10" d="M427.13,396.285a2.726,2.726,0,0,1-1.371-.368L278.8,311.065a2.744,2.744,0,1,1,2.745-4.752L428.5,391.164a2.745,2.745,0,0,1-1.374,5.12Z" transform="translate(162.125 192.837)" fill="#1957cb" stroke="#1957cb" stroke-linecap="round" stroke-width="5"/>
  </g>
</svg>
