<svg xmlns="http://www.w3.org/2000/svg" width="1130.391" height="312.51" viewBox="0 0 1130.391 312.51">
  <g id="Group_1" data-name="Group 1" transform="translate(-492.048 -433.01)">
    <path id="Path_1" data-name="Path 1" d="M226.71,0V-11.55c-20.79-2.64-25.08-6.93-36.3-35.97-21.45-56.76-41.91-114.18-63.03-171.93l-16.83,4.29L42.9-45.54C32.01-17.82,28.05-14.19,6.27-11.55L5.94,0H79.86V-11.55c-24.09-2.97-24.75-7.59-20.13-23.43,3.96-13.2,8.25-25.08,11.88-35.31h63.36c4.95,13.53,9.9,27.39,13.2,37.29,5.28,14.52,3.63,18.48-15.84,21.45V0ZM128.7-87.78H77.22c8.58-23.43,16.83-47.19,26.07-71.28h.99Z" transform="translate(789 665)" fill="#1957cb"/>
    <path id="Path_2" data-name="Path 2" d="M217.8-7.59c-7.59-2.64-12.87-6.6-20.13-14.19-6.6-6.93-13.53-17.49-25.41-35.64-9.57-15.18-22.11-37.29-26.73-46.86,22.11-9.24,41.25-24.75,41.25-53.79,0-20.46-9.24-35.31-22.44-43.89-13.2-9.24-30.03-12.54-58.74-12.54H12.87v11.55c24.09,2.31,27.06,5.61,27.06,32.01V-44.22c0,27.06-3.63,30.36-28.38,32.67V0h99.66V-11.55c-24.75-2.31-28.05-5.61-28.05-32.67V-92.4h6.27c10.56.33,16.5,4.29,21.78,14.52,9.57,17.16,18.48,34.98,27.06,48.51C151.47-8.58,164.34.66,205.92,2.64c3.96,0,7.92.33,9.9.33ZM83.16-105.27v-80.52c0-6.93.66-10.23,2.97-12.21,1.98-1.98,6.6-3.3,14.85-3.3,18.48,0,38.94,12.87,38.94,47.85,0,16.83-4.62,30.03-15.84,39.27-7.26,6.6-18.48,8.91-32.34,8.91Z" transform="translate(1010 665)" fill="#1957cb"/>
    <path id="Path_3" data-name="Path 3" d="M48.84-170.61c13.53,0,23.76-10.56,23.76-23.1,0-13.2-10.23-23.1-23.43-23.1a23.236,23.236,0,0,0-23.43,23.1C25.74-181.17,36.63-170.61,48.84-170.61ZM94.05,0V-10.56C74.25-13.2,72.6-14.85,72.6-37.62v-112.2a394.75,394.75,0,0,1-60.06,11.88v9.57c15.84,2.64,18.15,3.63,18.15,25.41v65.34c0,23.43-1.98,24.75-21.12,27.06V0Zm27.06-145.86-9.57,11.88,1.65,3.96h21.45v94.38c0,20.79-1.32,22.44-20.46,25.08V0h89.76V-10.56c-25.08-2.64-27.39-4.62-27.39-25.08v-94.38h33.33c4.62-2.31,5.94-12.21,4.62-15.84H176.55l-.33-11.55c-1.32-28.05-1.32-39.6.66-45.54,1.32-5.28,4.29-8.91,10.23-8.91,8.91,0,19.47,8.25,27.72,16.5,2.97,2.97,6.6,2.97,10.89-.33a29.931,29.931,0,0,0,10.23-11.88c1.98-4.62,1.65-9.9-2.97-14.52-5.61-5.28-13.86-9.24-27.06-9.9-15.84,1.98-27.06,7.92-38.94,18.15-19.14,15.51-26.07,31.68-28.38,38.61-2.31,7.92-3.96,14.85-3.96,22.11v7.26Zm264.33,0h-59.4v10.56c16.17,2.97,19.47,7.26,15.84,18.15-5.94,18.81-17.16,51.81-24.75,70.29l-24.75-73.26c-3.63-10.56-.99-12.54,13.2-15.18v-10.56H223.74v10.56c15.51,2.31,19.47,6.27,25.41,20.46,6.27,14.52,24.42,61.38,41.58,109.23,1.98,5.28,2.97,10.23,1.32,15.51a109.916,109.916,0,0,1-6.27,13.53c-6.27,10.23-13.86,16.5-27.06,23.43-6.6,4.29-8.91,7.59-8.91,12.87,0,11.88,14.19,20.79,23.1,20.79,5.61,0,9.9-1.65,12.21-8.91,5.94-18.48,12.54-38.94,34.65-92.4,19.14-45.87,30.03-73.26,38.28-90.75,8.25-17.82,11.55-21.12,27.39-23.76Z" transform="translate(1237 665)" fill="#121212"/>
    <path id="Path_1-2" data-name="Path 1" d="M173.937,846.527q-48.417,0-96.59-1.389a5.389,5.389,0,1,1,.312-10.774c75.148,2.176,151.287,1.79,226.462-1.139a168.925,168.925,0,0,0-34.195-41.99c-2.224-1.979-1.979.094,0-2.131s3.434-4.468,5.655-2.491c16.774,14.925,31.975,29.2,42.206,49.194a5.39,5.39,0,0,1-4.573,7.838C267.031,845.566,220.451,846.527,173.937,846.527Z" transform="translate(427.629 -184.789)" fill="#63efff" stroke="#63efff" stroke-width="10"/>
    <path id="Path_2-2" data-name="Path 2" d="M596.316,433.087a5.389,5.389,0,0,1-2.721-10.043l46.98-27.419c3.768-2.2,7.664-4.475,9.866-7.668,2.833-4.108,3.077-9.85,3.092-16.382.049-18.783-.407-37.846-1.351-56.662a5.389,5.389,0,1,1,10.764-.54c.954,19,1.414,38.26,1.365,57.23-.021,8.055-.419,15.828-5,22.474-3.564,5.171-8.966,8.324-13.306,10.857l-46.982,27.419A5.36,5.36,0,0,1,596.316,433.087Z" transform="translate(29.189 178.353)" fill="#63efff"/>
    <g id="Group_2" data-name="Group 2" transform="translate(494.613 597.303)">
      <g id="Group_1-2" data-name="Group 1" transform="translate(0.013 0)">
        <path id="Path_3-2" data-name="Path 3" d="M295.211,836.69H60.074c-4.947,0-8.35-1.513-9.584-4.259-.446-.994-1.19-3.639,1.54-6.705l35.318-39.681c2.317-2.6,8.061-3.965,12.537-3.965h32.1a2.695,2.695,0,0,1,0,5.39h-32.1c-3.963,0-7.748,1.3-8.513,2.158l-35.318,39.68a2.179,2.179,0,0,0-.626,1.016c.114.119,1.317.976,4.645.976H295.209c3.24,0,4.466-.814,4.657-1.068a4.565,4.565,0,0,0-.64-.924L263.911,789.63c-.765-.857-4.551-2.158-8.513-2.158H221.8a2.695,2.695,0,1,1,0-5.389h33.6c4.475,0,10.22,1.361,12.537,3.965l35.318,39.681c2.73,3.067,1.986,5.71,1.54,6.705C303.561,835.181,300.158,836.69,295.211,836.69Z" transform="translate(-50.05 -782.08)" fill="#100b80" stroke="#100b80" stroke-linecap="round" stroke-width="5"/>
        <path id="Path_4" data-name="Path 4" d="M224.548,837.1a2.695,2.695,0,0,1-2.321-4.061L250.45,785.1a2.695,2.695,0,1,1,4.645,2.733l-28.223,47.948a2.692,2.692,0,0,1-2.324,1.328Z" transform="translate(-181.997 -783.375)" fill="#100b80" stroke="#100b80" stroke-linecap="round" stroke-width="5"/>
        <path id="Path_5" data-name="Path 5" d="M913.824,837.1a2.691,2.691,0,0,1-2.214-1.156L878.258,788a2.695,2.695,0,1,1,4.424-3.077l33.353,47.945a2.695,2.695,0,0,1-2.211,4.231Z" transform="translate(-685.739 -783.373)" fill="#100b80" stroke="#100b80" stroke-linecap="round" stroke-width="5"/>
        <path id="Path_6" data-name="Path 6" d="M189.583,853.868a2.695,2.695,0,0,1-2.163-4.3l13.588-18.323a2.695,2.695,0,1,1,4.329,3.211L191.75,852.779a2.693,2.693,0,0,1-2.167,1.089Z" transform="translate(-155.142 -819)" fill="#100b80" stroke="#100b80" stroke-linecap="round" stroke-width="5"/>
      </g>
      <path id="Path_7" data-name="Path 7" d="M295.07,1003.221H60.138A10.148,10.148,0,0,1,50,993.083v-8.425a2.695,2.695,0,0,1,5.389,0v8.425a4.753,4.753,0,0,0,4.749,4.748H295.07a4.753,4.753,0,0,0,4.749-4.748v-8.425a2.695,2.695,0,0,1,5.389,0v8.425a10.148,10.148,0,0,1-10.139,10.138Z" transform="translate(-50 -935.586)" fill="#100b80" stroke="#100b80" stroke-linecap="round" stroke-width="5"/>
    </g>
    <path id="Path_8" data-name="Path 8" d="M352.264,298.415a2.7,2.7,0,0,1-1.347-.361L278.77,256.4a2.693,2.693,0,0,1-1.347-2.333v-83.3a2.693,2.693,0,0,1,1.347-2.333l72.147-41.658a2.7,2.7,0,0,1,2.695,0l72.146,41.658a2.693,2.693,0,0,1,1.347,2.333v83.309a2.693,2.693,0,0,1-1.347,2.333l-72.146,41.658A2.7,2.7,0,0,1,352.264,298.415Zm-69.452-45.9,69.452,40.1,69.452-40.1v-80.2l-69.452-40.1-69.452,40.1Z" transform="translate(269.953 318.775)" fill="#100b80" stroke="#100b80" stroke-linecap="round" stroke-width="5"/>
    <path id="Path_9" data-name="Path 9" d="M280.12,394.642a2.695,2.695,0,0,1-1.349-5.027l144.292-83.309a2.694,2.694,0,0,1,2.695,4.666L281.465,394.281A2.676,2.676,0,0,1,280.12,394.642Z" transform="translate(269.953 180.895)" fill="#100b80" stroke="#100b80" stroke-linecap="round" stroke-width="5"/>
    <path id="Path_10" data-name="Path 10" d="M424.408,394.642a2.676,2.676,0,0,1-1.346-.361L278.77,310.972a2.694,2.694,0,0,1,2.695-4.666l144.292,83.309a2.695,2.695,0,0,1-1.349,5.027Z" transform="translate(269.953 180.895)" fill="#100b80" stroke="#100b80" stroke-linecap="round" stroke-width="5"/>
  </g>
</svg>
