<svg xmlns="http://www.w3.org/2000/svg" width="72" height="72" viewBox="0 0 72 72">
  <g id="Group_1" data-name="Group 1" transform="translate(8735 -3798)">
    <circle id="ellipse" cx="36" cy="36" r="36" transform="translate(-8735 3798)" fill="none"/>
    <path id="logo" d="M149.853,94.445c-.154-.014-3.584-.266-3.584-.266s-2.38-2.38-2.646-2.632a1.071,1.071,0,0,0-.966-.126c-.028.014-.518.168-1.33.42-.8-2.3-2.2-4.41-4.676-4.41a1.059,1.059,0,0,0-.21.014,2.982,2.982,0,0,0-2.324-1.344c-5.754,0-8.5,7.225-9.353,10.893-2.24.7-3.822,1.19-4.018,1.26-1.246.392-1.288.434-1.456,1.61-.126.9-3.388,26.252-3.388,26.252l25.44,4.774,13.777-3s-4.83-32.861-4.872-33.085A.429.429,0,0,0,149.853,94.445Zm-13.581-1.288v.252c-1.4.434-2.926.91-4.438,1.386.854-3.318,2.45-4.914,3.864-5.53A11.177,11.177,0,0,1,136.272,93.157Zm-2.3-5.516a1.313,1.313,0,0,1,.742.252c-1.848.868-3.822,3.066-4.648,7.449-1.218.378-2.408.756-3.514,1.092C127.521,93.087,129.845,87.64,133.975,87.64Zm.994,19.532a7.772,7.772,0,0,0-3.318-.8c-2.674,0-2.814,1.694-2.814,2.114,0,2.324,6.02,3.206,6.02,8.639,0,4.27-2.7,7.029-6.329,7.029a8.779,8.779,0,0,1-6.595-2.73l1.176-3.878s2.3,1.974,4.228,1.974a1.718,1.718,0,0,0,1.778-1.736c0-3.024-4.928-3.164-4.928-8.135,0-4.186,2.982-8.233,9.017-8.233a7.363,7.363,0,0,1,3.472.672Zm2.8-14.239v-.462a10.465,10.465,0,0,0-.518-3.486c1.274.154,2.114,1.61,2.66,3.29C139.282,92.457,138.554,92.695,137.77,92.933Z" transform="translate(-8834.358 3724.269)" fill="#fff"/>
  </g>
</svg>
