<svg xmlns="http://www.w3.org/2000/svg" width="71.194" height="71.196" viewBox="0 0 71.194 71.196">
  <g id="Group_2" data-name="Group 2" transform="translate(-0.447 -0.453)">
    <path id="Path_1" data-name="Path 1" d="M129.549,90.873c-1.631,10.37-4.8,13.4-10.423,20.367-5.619,5.9-13.7,15.758-25.153,15.209-10.37-1.631-13.4-4.8-20.367-10.423-5.9-5.619-15.758-13.7-15.209-25.153,1.631-10.37,4.8-13.4,10.423-20.367,5.619-5.9,13.7-15.758,25.153-15.209,10.37,1.631,13.4,4.8,20.367,10.423C120.243,71.34,130.081,79.423,129.549,90.873Z" transform="translate(-57.929 -54.823)" fill="none"/>
    <g id="Group_1" data-name="Group 1" transform="translate(11.53 24.547)">
      <path id="Path_2" data-name="Path 2" d="M125.455,191.2h39.9a4.573,4.573,0,0,1,4.573,4.573V211a4.573,4.573,0,0,1-4.573,4.573h-14.3l1.968,4.8-8.632-4.8H125.473A4.573,4.573,0,0,1,120.9,211V195.773A4.547,4.547,0,0,1,125.455,191.2Z" transform="translate(-120.899 -191.2)" fill="#fff"/>
      <path id="Path_3" data-name="Path 3" d="M133.044,207.746a1.639,1.639,0,0,1,1.259-.62,1.455,1.455,0,0,1,1.737,1.436q.931,6.275,2.021,10.636l4.4-8.349a1.908,1.908,0,0,1,1.507-1.205c.886-.053,1.418.5,1.649,1.684a37.448,37.448,0,0,0,1.9,6.86q.771-7.631,2.641-11.025a1.564,1.564,0,0,1,1.329-.886,1.743,1.743,0,0,1,1.259.408,1.568,1.568,0,0,1,.62,1.134,1.76,1.76,0,0,1-.195.957,24.516,24.516,0,0,0-1.95,7.232,38.816,38.816,0,0,0-.567,7.64,2.361,2.361,0,0,1-.248,1.329,1.334,1.334,0,0,1-1.064.727,2,2,0,0,1-1.578-.744,19.813,19.813,0,0,1-4.431-8.544c-1.294,2.57-2.269,4.485-2.889,5.779-1.188,2.269-2.18,3.421-3.031,3.492-.549.035-1.01-.425-1.4-1.383q-1.542-3.935-3.315-15.209A1.981,1.981,0,0,1,133.044,207.746Z" transform="translate(-130.598 -203.599)" fill="#3765af"/>
      <path id="Path_4" data-name="Path 4" d="M328.765,220.946a4.65,4.65,0,0,0-3.208-2.322,4.711,4.711,0,0,0-1.081-.124c-1.932,0-3.492,1.01-4.715,3.013a10.565,10.565,0,0,0-1.56,5.655,7.794,7.794,0,0,0,.957,3.971,4.65,4.65,0,0,0,3.208,2.322,4.711,4.711,0,0,0,1.081.124,5.373,5.373,0,0,0,4.715-3.013,10.671,10.671,0,0,0,1.56-5.672,7.637,7.637,0,0,0-.957-3.953Zm-2.535,5.566a5.244,5.244,0,0,1-1.524,2.96,1.93,1.93,0,0,1-1.631.638c-.479-.106-.886-.514-1.188-1.294a4.908,4.908,0,0,1-.354-1.826,6.682,6.682,0,0,1,.142-1.471,6.38,6.38,0,0,1,1.064-2.393c.656-.975,1.365-1.383,2.092-1.241.479.106.886.514,1.188,1.294a4.907,4.907,0,0,1,.355,1.826,8.054,8.054,0,0,1-.142,1.507Z" transform="translate(-283.227 -213.661)" fill="#3765af"/>
      <path id="Path_5" data-name="Path 5" d="M257.865,220.946a5.038,5.038,0,0,0-4.29-2.446c-1.932,0-3.492,1.01-4.715,3.013a10.565,10.565,0,0,0-1.56,5.655,7.794,7.794,0,0,0,.957,3.971,4.65,4.65,0,0,0,3.208,2.322,4.711,4.711,0,0,0,1.081.124,5.373,5.373,0,0,0,4.715-3.013,10.67,10.67,0,0,0,1.56-5.672,7.636,7.636,0,0,0-.957-3.953Zm-2.535,5.566a5.244,5.244,0,0,1-1.524,2.96,1.93,1.93,0,0,1-1.631.638c-.479-.106-.886-.514-1.188-1.294a4.907,4.907,0,0,1-.355-1.826,6.684,6.684,0,0,1,.142-1.471,6.381,6.381,0,0,1,1.064-2.393c.656-.975,1.365-1.383,2.092-1.241.479.106.886.514,1.188,1.294a4.907,4.907,0,0,1,.355,1.826,6.8,6.8,0,0,1-.142,1.507Z" transform="translate(-224.894 -213.661)" fill="#3765af"/>
    </g>
  </g>
</svg>
